# xmcd
#
# Track frame offsets:
#	182
#	12220
#	24957
#	39342
#	58877
#	74497
#	88042
#	98660
#	108630
#	123835
#	144802
#	160570
#
# Disc length: 2323 seconds
#
# Revision: 0
# Processed by: cddbd v1.5.2PL0 Copyright (c) Steve Scherf et al.
# Submitted via: EasyCDDAExtractor 9.1.1.2
#
DISCID=8f09110c
DTITLE=John Prine - Sweet Revenge
DYEAR=1973
DGENRE=Country
TTITLE0=Sweet Revenge
TTITLE1=Please Don't Bury Me
TTITLE2=Christmas In Prison
TTITLE3=Dear Abby
TTITLE4=Blue Umbrella
TTITLE5=Often Is A Word I Seldom Use
TTITLE6=Onomatopoeia
TTITLE7=Grandpa Was A Carpenter
TTITLE8=The Accident (Things Could Be Worse)
TTITLE9=Mexican Home
TTITLE10=Good Time 
TTITLE11=Nine Pound Hammer
EXTD=
EXTT0=
EXTT1=
EXTT2=
EXTT3=
EXTT4=
EXTT5=
EXTT6=
EXTT7=
EXTT8=
EXTT9=
EXTT10=
EXTT11=
PLAYORDER=
